<svg width="151" height="151" viewBox="0 0 151 151" fill="none" xmlns="http://www.w3.org/2000/svg">
<path d="M15.0377 10.8828L6.98438 18.8732L59.7715 71.5345L62.7285 75.4982H62.9173V112.43C62.6656 114.255 63.2948 116.205 64.7419 117.652L77.3881 130.299C79.8419 132.752 83.8056 132.752 86.2594 130.299C87.7065 128.977 88.3356 126.964 88.084 125.077V99.9728L131.119 143.008L139.109 135.017L88.084 83.992L59.2052 55.1132L26.111 22.0191L15.0377 10.8828ZM39.0719 18.8732L91.4815 71.3457L124.513 29.0657C126.652 26.3603 126.149 22.3966 123.443 20.2574C122.248 19.3766 120.926 18.8732 119.542 18.8732H39.0719Z" fill="#FF0000"/>
</svg>
