<svg width="21" height="21" viewBox="0 0 21 21" fill="none" xmlns="http://www.w3.org/2000/svg">
<g clip-path="url(#clip0_220_2)">
<rect width="21" height="21" fill="#EED519"/>
<mask id="mask0_220_2" style="mask-type:luminance" maskUnits="userSpaceOnUse" x="0" y="0" width="21" height="21">
<path d="M21 0H0V21H21V0Z" fill="white"/>
</mask>
<g mask="url(#mask0_220_2)">
<path d="M10.5 13C11.8807 13 13 11.8807 13 10.5C13 9.11929 11.8807 8 10.5 8C9.11929 8 8 9.11929 8 10.5C8 11.8807 9.11929 13 10.5 13Z" fill="white"/>
<path d="M21 10.5C21 9.25244 20.7413 8.0171 20.2388 6.86451C19.7362 5.71191 18.9997 4.66464 18.0711 3.78249C17.1425 2.90033 16.0401 2.20056 14.8268 1.72314C13.6136 1.24572 12.3132 1 11 1C9.68678 1 8.38642 1.24572 7.17317 1.72314C5.95991 2.20056 4.85752 2.90033 3.92893 3.78249C3.00035 4.66464 2.26375 5.71192 1.7612 6.86451C1.25866 8.0171 1 9.25244 1 10.5H7.5L11 7L13.1241 10.5H21Z" fill="#F50F0F"/>
<path d="M1 10C1 11.2476 1.2587 12.4829 1.7612 13.6355C2.2638 14.7881 3.0003 15.8354 3.9289 16.7175C4.8575 17.5997 5.9599 18.2994 7.1732 18.7769C8.3864 19.2543 9.6868 19.5 11 19.5C12.3132 19.5 13.6136 19.2543 14.8268 18.7769C16.0401 18.2994 17.1425 17.5997 18.0711 16.7175C18.9997 15.8354 19.7363 14.7881 20.2388 13.6355C20.7413 12.4829 21 11.2476 21 10H14.5L11 13.5L8 12.5L7.1732 10.5L1 10Z" fill="white"/>
<path d="M0.150391 9.44922H7.50039V11.5492H0.150391V9.44922Z" fill="black"/>
<path d="M13.5 9.44922H20.85V11.5492H13.5V9.44922Z" fill="black"/>
<path d="M10.5 0C9.12112 0 7.75574 0.271591 6.48182 0.799265C5.2079 1.32694 4.05039 2.10036 3.07538 3.07538C1.10625 5.04451 0 7.71523 0 10.5C0 13.2848 1.10625 15.9555 3.07538 17.9246C4.05039 18.8996 5.2079 19.6731 6.48182 20.2007C7.75574 20.7284 9.12112 21 10.5 21C13.2848 21 15.9555 19.8938 17.9246 17.9246C19.8938 15.9555 21 13.2848 21 10.5C21 9.12112 20.7284 7.75574 20.2007 6.48182C19.6731 5.2079 18.8996 4.05039 17.9246 3.07538C16.9496 2.10036 15.7921 1.32694 14.5182 0.799265C13.2443 0.271591 11.8789 0 10.5 0ZM10.5 18.9C5.8695 18.9 2.1 15.1305 2.1 10.5C2.1 5.8695 5.8695 2.1 10.5 2.1C15.1305 2.1 18.9 5.8695 18.9 10.5C18.9 15.1305 15.1305 18.9 10.5 18.9Z" fill="black"/>
<path fill-rule="evenodd" clip-rule="evenodd" d="M13.7072 13.2119C14.3256 12.4819 14.6988 11.5344 14.6988 10.5008C14.6988 8.1793 12.8182 6.30078 10.4988 6.30078C8.1794 6.30078 6.29883 8.1793 6.29883 10.5008C6.29883 12.8223 8.1794 14.7008 10.4988 14.7008C11.7857 14.7008 12.9372 14.1225 13.7072 13.2119ZM10.4988 12.6008C11.6585 12.6008 12.5988 11.6615 12.5988 10.5008C12.5988 9.34004 11.6585 8.40078 10.4988 8.40078C9.33911 8.40078 8.39883 9.34004 8.39883 10.5008C8.39883 11.6615 9.33911 12.6008 10.4988 12.6008Z" fill="black"/>
</g>
</g>
<defs>
<clipPath id="clip0_220_2">
<rect width="21" height="21" fill="white"/>
</clipPath>
</defs>
</svg>
