<svg width="235" height="235" viewBox="0 0 235 235" fill="none" xmlns="http://www.w3.org/2000/svg">
    <rect x="0" y="0" width="235" height="235" fill="#90c12c" stroke="white" stroke-width="10" rx="100"/>
    <path d="M88.3033 33.5443L110.606 55.2741C112.841 55.0979 115.145 55 117.5 55C120.151 55 122.738 55.124 125.234 55.3443L147.141 34L153.444 40.4695L136.44 57.0363C147.544 59.4217 155 63.2119 155 64.5C155 66.433 146.5 86.5 117.5 87C88.5001 87.5 80.0001 66.433 80.0001 64.5C80.0001 63.1831 87.793 59.2511 99.3096 56.8785L82.0001 40.0138L88.3033 33.5443Z" fill="black"/>
    <path d="M84.5002 188.5C41.5002 165.5 31.5001 106.5 71.0002 71C80.0001 87.5 104.5 97 104.5 97C104.5 97 134.5 149.5 84.5002 188.5Z" fill="black"/>
    <path d="M164.426 71C203.926 106.5 193.926 165.5 150.926 188.5C100.926 149.5 130.926 97 130.926 97C130.926 97 155.426 87.5 164.426 71Z" fill="black"/>
</svg>


