<svg width="235" height="235" viewBox="0 0 235 235" fill="none" xmlns="http://www.w3.org/2000/svg">
<path d="M133.383 7H100.617C48.9138 7 7 48.9138 7 100.617V133.383C7 185.086 48.9138 227 100.617 227H133.383C185.086 227 227 185.086 227 133.383V100.617C227 48.9138 185.086 7 133.383 7Z" fill="#90C12C" stroke="white" stroke-width="10"/>
<path d="M88.1925 41L110.198 62.1346C112.403 61.9632 114.676 61.868 117 61.868C119.616 61.868 122.168 61.9886 124.631 62.2029L146.246 41.4432L152.465 47.7355L135.687 63.8485C146.643 66.1686 154 69.855 154 71.1078C154 72.9878 145.613 92.5052 117 92.9915C88.3867 93.4778 80 72.9878 80 71.1078C80 69.827 87.689 66.0027 99.0521 63.695L81.9733 47.2923L88.1925 41Z" fill="white"/>
<path d="M84.6057 193C42.3954 170.489 32.579 112.745 71.3537 78C80.1883 94.1489 104.238 103.447 104.238 103.447C104.238 103.447 133.687 154.83 84.6057 193Z" fill="white"/>
<path d="M163.015 78C201.202 112.745 191.535 170.489 149.964 193C101.626 154.83 130.629 103.447 130.629 103.447C130.629 103.447 154.315 94.1489 163.015 78Z" fill="white"/>
</svg>
