<svg width="235" height="235" viewBox="0 0 235 235" fill="none" xmlns="http://www.w3.org/2000/svg">
<path fill-rule="evenodd" clip-rule="evenodd" d="M118 193C159.974 193 194 158.974 194 117C194 75.0264 159.974 41 118 41C76.0264 41 42 75.0264 42 117C42 158.974 76.0264 193 118 193ZM179 116C179 150.794 150.794 179 116 179C108.666 179 101.626 177.747 95.0798 175.443C121.397 169.3 141 145.689 141 117.5C141 87.5225 118.831 62.723 89.993 58.6016C97.9212 55.0036 106.727 53 116 53C150.794 53 179 81.2061 179 116Z" fill="black"/>
</svg>
