<svg width="235" height="235" viewBox="0 0 235 235" fill="none" xmlns="http://www.w3.org/2000/svg">
<path d="M133.383 7H100.617C48.9138 7 7 48.9138 7 100.617V133.383C7 185.086 48.9138 227 100.617 227H133.383C185.086 227 227 185.086 227 133.383V100.617C227 48.9138 185.086 7 133.383 7Z" fill="#5A5366" stroke="white" stroke-width="10"/>
<path fill-rule="evenodd" clip-rule="evenodd" d="M117 193C158.974 193 193 158.974 193 117C193 75.0264 158.974 41 117 41C75.0264 41 41 75.0264 41 117C41 158.974 75.0264 193 117 193ZM178 116C178 150.794 149.794 179 115 179C107.666 179 100.626 177.747 94.0798 175.443C120.397 169.3 140 145.689 140 117.5C140 87.5225 117.831 62.723 88.993 58.6016C96.9212 55.0036 105.727 53 115 53C149.794 53 178 81.2061 178 116Z" fill="white"/>
</svg>
