<svg width="235" height="235" viewBox="0 0 235 235" fill="none" xmlns="http://www.w3.org/2000/svg">
<path d="M133.383 7H100.617C48.9138 7 7 48.9138 7 100.617V133.383C7 185.086 48.9138 227 100.617 227H133.383C185.086 227 227 185.086 227 133.383V100.617C227 48.9138 185.086 7 133.383 7Z" fill="#0A6DC4" stroke="white" stroke-width="10"/>
<path fill-rule="evenodd" clip-rule="evenodd" d="M45 129.5C49.452 95.0709 69.2321 81.2553 88.548 67.7639C101.772 58.5275 114.779 49.443 122.5 34C125.705 53.6886 123.04 58.7018 121.033 62.4785C120.848 62.8253 120.669 63.1617 120.501 63.4981C257 79.5009 158 270.5 102.5 171.498C152.242 171.498 155.006 141.745 146.309 119.472C138.613 113.471 128.375 101.859 125.433 96.1838C117.455 118.403 96.7241 120.177 76.9668 121.868C64.9082 122.9 53.2123 123.901 45 129.5ZM68.4999 110.5C72.4999 92.5001 85.9999 86.0001 88.4999 88.0001C90.9999 90.0001 89.9999 95.5001 89.4999 98.0001C88.9999 100.5 83.4999 107 68.4999 110.5Z" fill="white"/>
<path d="M102.5 133.501C79.6479 131.718 67.9301 135.097 48.5 147.001C60.9854 181.732 73.7987 193.937 108 201.501C91.7892 175.165 83.7904 160.382 102.5 133.501Z" fill="white"/>
</svg>
