<svg width="235" height="235" viewBox="0 0 235 235" fill="none" xmlns="http://www.w3.org/2000/svg">
<path fill-rule="evenodd" clip-rule="evenodd" d="M45.0001 114.5C49.4521 80.0709 69.2322 66.2553 88.5481 52.7639C101.772 43.5275 114.779 34.443 122.5 19C125.705 38.6886 123.04 43.7018 121.033 47.4785C120.848 47.8253 120.669 48.1617 120.501 48.4981C257 64.5009 158 255.5 102.5 156.498C152.242 156.498 155.006 126.745 146.309 104.472C138.613 98.4713 128.375 86.8594 125.433 81.1838C117.455 103.403 96.7242 105.177 76.9669 106.868C64.9083 107.9 53.2124 108.901 45.0001 114.5ZM68.5 95.5001C72.5 77.5001 86 71.0001 88.5 73.0001C91 75.0001 90 80.5001 89.5 83.0001C89 85.5001 83.5 92.0001 68.5 95.5001Z" fill="black"/>
<path d="M102.5 119.5C79.6479 117.717 67.9301 121.096 48.5 133C60.9854 167.731 73.7987 179.936 108 187.5C91.7892 161.164 83.7904 146.381 102.5 119.5Z" fill="black"/>
</svg>
