<svg width="235" height="235" viewBox="0 0 235 235" fill="none" xmlns="http://www.w3.org/2000/svg">
<path d="M133.383 7H100.617C48.9138 7 7 48.9138 7 100.617V133.383C7 185.086 48.9138 227 100.617 227H133.383C185.086 227 227 185.086 227 133.383V100.617C227 48.9138 185.086 7 133.383 7Z" fill="#EC8FE6" stroke="white" stroke-width="10"/>
<path fill-rule="evenodd" clip-rule="evenodd" d="M120.089 35.5116C118.971 33.5563 116.178 33.4834 114.96 35.3777L91.8887 71.2664C91.15 72.4154 89.7285 72.9204 88.4305 72.4948L66.3369 65.251C63.9007 64.4523 61.6499 66.8798 62.6302 69.2488L71.151 89.8409C71.7169 91.2084 71.201 92.7842 69.9359 93.5523L34.443 115.101C32.4991 116.281 32.524 119.111 34.4884 120.257L69.9485 140.942C71.2112 141.678 71.7592 143.218 71.2459 144.587L62.4519 168.037C61.5475 170.449 63.9026 172.804 66.3142 171.9L89.8322 163.08C91.1709 162.578 92.6779 163.091 93.4331 164.305L115.01 198.996C116.202 200.913 119.005 200.876 120.146 198.927L140.322 164.459C141.076 163.172 142.66 162.634 144.042 163.196L165.244 171.821C167.593 172.776 169.994 170.567 169.238 168.147L161.848 144.499C161.431 143.164 161.992 141.717 163.2 141.013L198.781 120.257C200.745 119.111 200.77 116.281 198.826 115.101L163.203 93.4729C161.996 92.7402 161.463 91.2652 161.924 89.9306L169.141 69.0005C169.954 66.6432 167.703 64.3808 165.342 65.1813L143.976 72.4238C142.617 72.8847 141.121 72.3176 140.408 71.071L120.089 35.5116ZM118.407 83.606C117.659 82.1752 115.611 82.1752 114.863 83.606L104.273 103.853C104.087 104.208 103.8 104.498 103.447 104.688L83.4124 115.455C82.0081 116.21 82.0081 118.224 83.4124 118.979L103.447 129.746C103.8 129.936 104.087 130.226 104.273 130.581L114.863 150.829C115.611 152.259 117.659 152.259 118.407 150.829L128.997 130.581C129.182 130.226 129.47 129.936 129.822 129.746L149.857 118.979C151.261 118.224 151.261 116.21 149.857 115.455L129.822 104.688C129.47 104.498 129.182 104.208 128.997 103.853L118.407 83.606Z" fill="white"/>
</svg>
