<svg width="235" height="235" viewBox="0 0 235 235" fill="none" xmlns="http://www.w3.org/2000/svg">
<path fill-rule="evenodd" clip-rule="evenodd" d="M120.954 34.2942C119.836 32.3389 117.043 32.266 115.825 34.1603L92.7542 70.049C92.0155 71.198 90.594 71.703 89.296 71.2774L67.2024 64.0336C64.7662 63.2349 62.5154 65.6624 63.4957 68.0314L72.0165 88.6235C72.5824 89.991 72.0665 91.5668 70.8014 92.3349L35.3085 113.884C33.3646 115.064 33.3895 117.894 35.3539 119.04L70.814 139.725C72.0767 140.461 72.6247 142.001 72.1114 143.37L63.3174 166.82C62.413 169.232 64.7681 171.587 67.1797 170.683L90.6977 161.863C92.0364 161.361 93.5434 161.874 94.2986 163.088L115.875 197.779C117.067 199.696 119.87 199.659 121.011 197.71L141.187 163.242C141.941 161.955 143.525 161.417 144.907 161.979L166.109 170.604C168.458 171.559 170.859 169.35 170.103 166.93L162.713 143.282C162.296 141.947 162.857 140.5 164.065 139.796L199.646 119.04C201.61 117.894 201.635 115.064 199.691 113.884L164.068 92.2555C162.861 91.5228 162.328 90.0478 162.789 88.7132L170.006 67.7831C170.819 65.4258 168.568 63.1634 166.207 63.9639L144.841 71.2064C143.482 71.6673 141.986 71.1002 141.273 69.8536L120.954 34.2942ZM119.272 82.3886C118.524 80.9578 116.476 80.9578 115.728 82.3886L105.138 102.636C104.952 102.991 104.665 103.281 104.312 103.471L84.2779 114.238C82.8736 114.993 82.8736 117.007 84.2779 117.762L104.312 128.529C104.665 128.719 104.952 129.009 105.138 129.364L115.728 149.612C116.476 151.042 118.524 151.042 119.272 149.612L129.862 129.364C130.047 129.009 130.335 128.719 130.687 128.529L150.722 117.762C152.126 117.007 152.126 114.993 150.722 114.238L130.687 103.471C130.335 103.281 130.047 102.991 129.862 102.636L119.272 82.3886Z" fill="black"/>
</svg>
