<svg width="235" height="235" viewBox="0 0 235 235" fill="none" xmlns="http://www.w3.org/2000/svg">
<path d="M133.383 7H100.617C48.9138 7 7 48.9138 7 100.617V133.383C7 185.086 48.9138 227 100.617 227H133.383C185.086 227 227 185.086 227 133.383V100.617C227 48.9138 185.086 7 133.383 7Z" fill="#CE4069" stroke="white" stroke-width="10"/>
<path d="M70 64C70 61.2386 72.2385 59 75 59H87C89.7615 59 92 61.2386 92 64V103C92 103.552 92.4477 104 93 104H100C100.552 104 101 103.552 101 103V64C101 61.2386 103.239 59 106 59H118C120.761 59 123 61.2386 123 64V103C123 103.552 123.448 104 124 104H131C131.552 104 132 103.552 132 103V64C132 61.2386 134.239 59 137 59H149C151.761 59 154 61.2386 154 64V103C154 103.552 154.448 104 155 104H162C162.552 104 163 103.552 163 103V64C163 61.2386 165.239 59 168 59H180C182.761 59 185 61.2386 185 64V173C185 174.105 184.105 175 183 175H80C74.4772 175 70 170.523 70 165V64Z" fill="white"/>
<path d="M50.0005 95C50.0005 95 35.5009 122 36.0009 135.5C36.5009 149 50.0009 175 50.0009 175H60.0005C60.5528 175 61.0005 174.552 61.0005 174V96C61.0005 95.4477 60.5528 95 60.0005 95H50.0005Z" fill="white"/>
</svg>
