<svg width="235" height="235" viewBox="0 0 235 235" fill="none" xmlns="http://www.w3.org/2000/svg">
<path d="M117 26.5C137.965 35.4849 139.495 57.4261 138.008 63.4696C138.698 63.6438 139.383 63.8289 140.062 64.0246C139.71 64.0083 139.356 64 139 64C126.85 64 117 73.6259 117 85.5C117 97.3741 126.85 107 139 107C151.15 107 161 97.3741 161 85.5C161 79.4857 158.473 74.0483 154.4 70.1462C172.806 80.8494 184.5 100.055 184.5 119.5C184.5 148.771 157.271 174 128 174C125.898 174 123.796 173.885 121.705 173.662C133.788 171.696 143 161.403 143 149C143 135.193 131.583 124 117.5 124C103.417 124 93.0001 134.193 93.0001 148C92.0001 184 139.5 189.5 175.5 170C117 246 7.50015 160.5 62.0002 92C62.0002 111.669 65.4048 122.905 70.1441 129.967C69.7211 127.538 69.5001 125.046 69.5001 122.5C69.5001 100.706 71.9948 77.5489 93.0823 67.1408C92.7032 67.0509 92.5001 67 92.5001 67C92.5001 67 119.5 57.5 117 26.5Z" fill="black"/>
</svg>
