<svg width="235" height="235" viewBox="0 0 235 235" fill="none" xmlns="http://www.w3.org/2000/svg">
<path d="M133.383 7H100.617C48.9138 7 7 48.9138 7 100.617V133.383C7 185.086 48.9138 227 100.617 227H133.383C185.086 227 227 185.086 227 133.383V100.617C227 48.9138 185.086 7 133.383 7Z" fill="#FF9C54" stroke="white" stroke-width="10"/>
<path d="M117.778 30C138.743 38.9849 140.273 60.9261 138.786 66.9696C139.476 67.1438 140.161 67.3289 140.84 67.5246C140.488 67.5083 140.134 67.5 139.778 67.5C127.628 67.5 117.778 77.1259 117.778 89C117.778 100.874 127.628 110.5 139.778 110.5C151.928 110.5 161.778 100.874 161.778 89C161.778 82.9857 159.251 77.5483 155.178 73.6462C173.584 84.3494 185.278 103.555 185.278 123C185.278 152.271 158.049 177.5 128.778 177.5C126.676 177.5 124.574 177.385 122.483 177.162C134.566 175.196 143.778 164.903 143.778 152.5C143.778 138.693 132.361 127.5 118.278 127.5C104.195 127.5 93.7784 137.693 93.7784 151.5C92.7784 187.5 140.278 193 176.278 173.5C117.778 249.5 8.27849 164 62.7785 95.5C62.7785 115.169 66.1831 126.405 70.9224 133.467C70.4994 131.038 70.2784 128.546 70.2784 126C70.2784 104.206 72.7731 81.0489 93.8606 70.6408C93.4815 70.5509 93.2784 70.5 93.2784 70.5C93.2784 70.5 120.278 61 117.778 30Z" fill="white"/>
</svg>
