<svg width="235" height="235" viewBox="0 0 235 235" fill="none" xmlns="http://www.w3.org/2000/svg">
<path d="M133.383 7H100.617C48.9138 7 7 48.9138 7 100.617V133.383C7 185.086 48.9138 227 100.617 227H133.383C185.086 227 227 185.086 227 133.383V100.617C227 48.9138 185.086 7 133.383 7Z" fill="#8FA8DD" stroke="white" stroke-width="10"/>
<path d="M153.769 69.0055C156.635 69.0815 176.317 69.6029 196 48C197 85.5 169 109.5 142.5 110.5C132.611 110.873 124.323 110.968 117.819 110.94C117.311 111.477 117 112.202 117 113C117 113.768 117.289 114.469 117.764 115H157C162 115 180.516 111 191 98.5C186.016 131 152 137 149.5 137C148.437 137 139.23 136.819 129 136.611V137H126.5C125.119 137 124 138.119 124 139.5C124 140.421 124.498 141.226 125.24 141.66C134.873 141.784 152.329 142.008 152.943 142.008C152.998 142.008 153.104 142.012 153.258 142.018C155.489 142.105 167.648 142.579 177 136.5C171.5 155 150 159.709 146.5 159.809C144.68 159.861 138.461 159.859 132.913 159.845C132.35 160.391 132 161.154 132 162C132 163.657 133.343 165 135 165V165.125C136.677 165.122 138.772 164.994 140.5 164.5L140.292 164.875C138.666 167.806 137.634 169.666 135.225 171.819L135.263 171.912C124.961 180.697 111.6 186 97 186C64.4152 186 38 159.585 38 127C38 95.6291 62.4838 69.9766 93.3851 68.1089L93.6235 68.6997L93.5 68C93.5 68 152 69 153.5 69C153.56 69 153.65 69.0024 153.769 69.0055Z" fill="white"/>
</svg>
