<svg width="235" height="235" viewBox="0 0 235 235" fill="none" xmlns="http://www.w3.org/2000/svg">
<path d="M156.769 71.0055C159.635 71.0815 179.317 71.6029 199 50C200 87.5 172 111.5 145.5 112.5C135.611 112.873 127.323 112.968 120.819 112.94C120.311 113.477 120 114.202 120 115C120 115.768 120.289 116.469 120.764 117H160C165 117 183.516 113 194 100.5C189.016 133 155 139 152.5 139C151.437 139 142.23 138.819 132 138.611V139H129.5C128.119 139 127 140.119 127 141.5C127 142.421 127.498 143.226 128.24 143.66C137.873 143.784 155.329 144.008 155.943 144.008C155.998 144.008 156.104 144.012 156.258 144.018C158.489 144.105 170.648 144.579 180 138.5C174.5 157 153 161.709 149.5 161.809C147.68 161.861 141.461 161.859 135.913 161.845C135.35 162.391 135 163.154 135 164C135 165.657 136.343 167 138 167V167.125C139.677 167.122 141.772 166.994 143.5 166.5L143.292 166.875C141.666 169.806 140.634 171.666 138.225 173.819L138.263 173.912C127.961 182.697 114.6 188 100 188C67.4152 188 41 161.585 41 129C41 97.6291 65.4838 71.9766 96.3851 70.1089L96.6235 70.6997L96.5 70C96.5 70 155 71 156.5 71C156.56 71 156.65 71.0024 156.769 71.0055Z" fill="black"/>
</svg>
