<svg width="235" height="235" viewBox="0 0 235 235" fill="none" xmlns="http://www.w3.org/2000/svg">
<path fill-rule="evenodd" clip-rule="evenodd" d="M168.999 162.002C180.209 149.169 187 132.378 187 114C187 73.6832 154.317 41 114 41C73.6832 41 41 73.6832 41 114C41 145.386 60.8068 172.145 88.6027 182.461L88.5 182.5C106 191.5 145.496 196.718 181 178C170.669 177.958 166.001 173.501 168.999 162.002ZM101.993 104.5C99.8599 105.464 97.4926 106 95 106C85.6112 106 78 98.3889 78 89C78 88.8329 78.0024 88.6663 78.0072 88.5002C72.1063 91.1666 68 97.1038 68 104C68 113.389 75.6112 121 85 121C94.2217 121 101.728 113.657 101.993 104.5ZM133.993 106.5C131.5 106.5 129.133 105.963 127 105C127.264 114.157 134.771 121.5 143.993 121.5C153.382 121.5 160.993 113.889 160.993 104.5C160.993 97.6035 156.887 91.6664 150.986 89C150.99 89.166 150.993 89.3326 150.993 89.4998C150.993 98.8886 143.382 106.5 133.993 106.5Z" fill="black"/>
</svg>
