<svg width="235" height="235" viewBox="0 0 235 235" fill="none" xmlns="http://www.w3.org/2000/svg">
<path d="M133.383 7H100.617C48.9138 7 7 48.9138 7 100.617V133.383C7 185.086 48.9138 227 100.617 227H133.383C185.086 227 227 185.086 227 133.383V100.617C227 48.9138 185.086 7 133.383 7Z" fill="#705898" stroke="white" stroke-width="10"/>
<path fill-rule="evenodd" clip-rule="evenodd" d="M171.999 163.002C183.209 150.169 190 133.378 190 115C190 74.6832 157.317 42 117 42C76.6832 42 44 74.6832 44 115C44 146.386 63.8068 173.145 91.6027 183.461L91.5 183.5C109 192.5 148.496 197.718 184 179C173.669 178.958 169.001 174.501 171.999 163.002ZM104.993 105.5C102.86 106.464 100.493 107 98 107C88.6112 107 81 99.3889 81 90C81 89.8329 81.0024 89.6663 81.0072 89.5002C75.1063 92.1666 71 98.1038 71 105C71 114.389 78.6112 122 88 122C97.2217 122 104.728 114.657 104.993 105.5ZM136.993 107.5C134.5 107.5 132.133 106.963 130 106C130.264 115.157 137.771 122.5 146.993 122.5C156.382 122.5 163.993 114.889 163.993 105.5C163.993 98.6035 159.887 92.6664 153.986 90C153.99 90.166 153.993 90.3326 153.993 90.4998C153.993 99.8886 146.382 107.5 136.993 107.5Z" fill="white"/>
</svg>
