<svg width="235" height="235" viewBox="0 0 235 235" fill="none" xmlns="http://www.w3.org/2000/svg">
<path d="M74.1571 192.084C103.233 208.341 140.663 202.103 162.722 175.558C199.334 131.5 176.5 50 176.5 50C176.525 50.2288 174.567 50.1667 171.097 50.0567C151.826 49.4457 85.9271 47.3562 54.2782 85.4418C32.1755 112.04 32.941 150.079 54.3715 175.689L68.8495 160.598L68.8496 99.1431C68.8496 97.8187 69.8604 96.7133 71.1795 96.5952C72.5056 96.4764 73.701 97.3946 73.9282 98.7064L82.2337 146.647L107.192 120.632C107.154 120.328 107.135 120.016 107.139 119.696L107.573 82.8991C107.59 81.4849 108.674 80.3129 110.083 80.1867C111.488 80.0609 112.761 81.0166 113.033 82.4009L118.269 109.085L151.359 74.5945C152.757 73.1369 155.049 73.0204 156.588 74.3285C158.117 75.6282 158.379 77.8897 157.188 79.5048L128.584 118.288H156.132C157.536 118.288 158.715 119.347 158.864 120.744C159.015 122.154 158.068 123.447 156.678 123.729L119.44 131.287C119.271 131.321 119.103 131.349 118.936 131.37L97.9374 159.841L145.863 159.416C147.121 159.405 148.181 160.35 148.315 161.6C148.452 162.878 147.576 164.043 146.311 164.267L88.6038 174.478C88.0827 174.57 87.5666 174.605 87.0614 174.587L74.1571 192.084Z" fill="black"/>
</svg>
