<svg width="235" height="235" viewBox="0 0 235 235" fill="none" xmlns="http://www.w3.org/2000/svg">
<path d="M133.383 7H100.617C48.9138 7 7 48.9138 7 100.617V133.383C7 185.086 48.9138 227 100.617 227H133.383C185.086 227 227 185.086 227 133.383V100.617C227 48.9138 185.086 7 133.383 7Z" fill="#63BB5B" stroke="white" stroke-width="10"/>
<path d="M80.1588 183.264C109.235 199.521 146.665 193.283 168.724 166.738C205.336 122.68 182.502 41.1796 182.502 41.1796C182.527 41.4084 180.569 41.3463 177.099 41.2363C157.828 40.6253 91.9288 38.5358 60.2799 76.6214C38.1772 103.22 38.9427 141.259 60.3732 166.869L74.8512 151.778L74.8513 90.3227C74.8513 88.9983 75.8621 87.8929 77.1812 87.7748C78.5073 87.656 79.7027 88.5742 79.9299 89.886L88.2354 137.827L113.194 111.812C113.156 111.508 113.137 111.196 113.141 110.876L113.575 74.0787C113.592 72.6645 114.676 71.4925 116.085 71.3663C117.49 71.2405 118.763 72.1962 119.035 73.5805L124.271 100.265L157.361 65.7741C158.759 64.3165 161.051 64.2 162.59 65.5081C164.119 66.8078 164.381 69.0693 163.19 70.6844L134.586 109.468H162.134C163.538 109.468 164.717 110.527 164.866 111.924C165.017 113.334 164.07 114.627 162.68 114.909L125.442 122.467C125.273 122.501 125.105 122.529 124.938 122.55L103.939 151.021L151.865 150.596C153.123 150.585 154.183 151.53 154.317 152.78C154.454 154.058 153.578 155.223 152.313 155.447L94.6055 165.658C94.0844 165.75 93.5683 165.785 93.0631 165.767L80.1588 183.264Z" fill="white"/>
</svg>
