<svg width="235" height="235" viewBox="0 0 235 235" fill="none" xmlns="http://www.w3.org/2000/svg">
<path d="M133.383 7H100.617C48.9138 7 7 48.9138 7 100.617V133.383C7 185.086 48.9138 227 100.617 227H133.383C185.086 227 227 185.086 227 133.383V100.617C227 48.9138 185.086 7 133.383 7Z" fill="#8F98A0" stroke="white" stroke-width="10"/>
<path fill-rule="evenodd" clip-rule="evenodd" d="M117 192C158.421 192 192 158.421 192 117C192 75.5786 158.421 42 117 42C75.5786 42 42 75.5786 42 117C42 158.421 75.5786 192 117 192ZM117 162C141.853 162 162 141.853 162 117C162 92.1472 141.853 72 117 72C92.1472 72 72 92.1472 72 117C72 141.853 92.1472 162 117 162Z" fill="white"/>
</svg>
