<svg width="235" height="235" viewBox="0 0 235 235" fill="none" xmlns="http://www.w3.org/2000/svg">
<path fill-rule="evenodd" clip-rule="evenodd" d="M84 190C91.5362 190 98.1451 185.936 101.85 179.831C105.202 185.936 111.182 190 118 190C125.109 190 131.306 185.582 134.564 179.04C137.994 185.582 144.517 190 152 190C163.046 190 172 180.374 172 168.5C172 163.907 170.66 159.65 168.377 156.156C183.507 144.361 193 127.377 193 108.5C193 72.8776 159.198 44 117.5 44C75.8025 44 42 72.8776 42 108.5C42 127.427 51.5422 144.449 66.741 156.248C64.3824 159.724 63 163.947 63 168.5C63 180.374 72.402 190 84 190ZM117.5 148C145.39 148 168 130.315 168 108.5C168 86.6848 145.39 69 117.5 69C89.6096 69 67 86.6848 67 108.5C67 130.315 89.6096 148 117.5 148Z" fill="black"/>
</svg>
