<svg width="235" height="235" viewBox="0 0 235 235" fill="none" xmlns="http://www.w3.org/2000/svg">
<path d="M133.383 7H100.617C48.9138 7 7 48.9138 7 100.617V133.383C7 185.086 48.9138 227 100.617 227H133.383C185.086 227 227 185.086 227 133.383V100.617C227 48.9138 185.086 7 133.383 7Z" fill="#F97176" stroke="white" stroke-width="10"/>
<path d="M48.2223 114.682C42.7996 187.891 138.222 197.682 156.223 176.182C161.379 170.023 75.2216 196.682 71.2223 123.182C69.795 96.9502 89.9534 72.9656 116.223 73.1812C136.881 73.3508 156.42 84.1509 158.723 104.682C160.966 124.683 145.954 148.654 126.223 144.682C114.308 142.283 104.346 135.319 103.723 123.182C103.181 112.635 108.17 101.084 118.723 100.682C126.571 100.382 136.722 106.182 135.222 114.182C133.722 122.182 133.722 121.182 129.959 123.471C125.158 126.391 120.088 116.283 116.223 119.182C110.916 123.162 122.18 130.59 128.723 131.682C138.26 133.273 144.577 124.11 146.723 114.682C149.882 100.799 136.225 90.2616 122.223 87.6812C104.372 84.3917 90.5398 99.9365 86.7223 117.682C81.9498 139.866 100.478 157.195 122.223 163.682C153.538 173.023 182.981 144.682 185.723 109.182C188.614 71.7409 149.679 44.5061 112.223 47.1812C75.989 49.769 50.9057 78.4549 48.2223 114.682Z" fill="white"/>
</svg>
