<svg width="235" height="235" viewBox="0 0 235 235" fill="none" xmlns="http://www.w3.org/2000/svg">
<path d="M49.0006 116C43.5779 189.209 139 199 157.001 177.5C162.157 171.341 75.9999 198 72.0006 124.5C70.5733 98.2687 90.7317 74.2841 117.001 74.4997C137.659 74.6693 157.198 85.4694 159.501 106C161.744 126.001 146.732 149.972 127.001 146C115.086 143.601 105.124 136.637 104.501 124.5C103.959 113.953 108.948 102.402 119.501 102C127.349 101.7 137.5 107.5 136 115.5C134.5 123.5 134.5 122.5 130.737 124.789C125.936 127.709 120.866 117.601 117.001 120.5C111.694 124.48 122.958 131.908 129.501 133C139.038 134.591 145.355 125.428 147.501 116C150.66 102.117 137.003 91.5801 123.001 88.9997C105.15 85.7102 91.3181 101.255 87.5006 119C82.7281 141.184 101.256 158.513 123.001 165C154.316 174.341 183.759 146 186.501 110.5C189.392 73.0594 150.457 45.8246 113.001 48.4997C76.7673 51.0875 51.684 79.7734 49.0006 116Z" fill="black"/>
</svg>
