<svg width="235" height="235" viewBox="0 0 235 235" fill="none" xmlns="http://www.w3.org/2000/svg">
<path d="M133.383 7H100.617C48.9138 7 7 48.9138 7 100.617V133.383C7 185.086 48.9138 227 100.617 227H133.383C185.086 227 227 185.086 227 133.383V100.617C227 48.9138 185.086 7 133.383 7Z" fill="#BFB186" stroke="white" stroke-width="10"/>
<path d="M45 150L40 112.5L94 54H164.5L141 112.5L71.5 159L45 150Z" fill="white"/>
<path d="M176.5 54L152.5 116.5L171 140.5L195 112.5L176.5 54Z" fill="white"/>
<path d="M88 163.5L144 126L162.5 150L136.5 179.5L88 163.5Z" fill="white"/>
</svg>
