<svg width="235" height="235" viewBox="0 0 235 235" fill="none" xmlns="http://www.w3.org/2000/svg">
<path d="M133.383 7H100.617C48.9138 7 7 48.9138 7 100.617V133.383C7 185.086 48.9138 227 100.617 227H133.383C185.086 227 227 185.086 227 133.383V100.617C227 48.9138 185.086 7 133.383 7Z" fill="#AAB8C2" stroke="white" stroke-width="10"/>
<path fill-rule="evenodd" clip-rule="evenodd" d="M35 116.5L76 46H158L198.5 116.5L158 188H76L35 116.5ZM117 154C137.987 154 155 136.987 155 116C155 95.0132 137.987 78 117 78C96.0132 78 79 95.0132 79 116C79 136.987 96.0132 154 117 154Z" fill="white"/>
</svg>
