<svg width="235" height="235" viewBox="0 0 235 235" fill="none" xmlns="http://www.w3.org/2000/svg">
<path d="M133.383 7H100.617C48.9138 7 7 48.9138 7 100.617V133.383C7 185.086 48.9138 227 100.617 227H133.383C185.086 227 227 185.086 227 133.383V100.617C227 48.9138 185.086 7 133.383 7Z" fill="#4D90D5" stroke="white" stroke-width="10"/>
<path fill-rule="evenodd" clip-rule="evenodd" d="M117.5 193.5C147.6 193.5 172 169.1 172 139C172 94 117.5 40 117.5 40C117.5 40 63 90.5 63 139C63 169.1 87.4005 193.5 117.5 193.5ZM123.5 158.5C132.685 158.5 140.951 154.569 146.709 148.298C144.613 163.662 131.439 175.5 115.5 175.5C98.103 175.5 84 161.397 84 144C84 135.788 87.1426 128.31 92.2907 122.702C92.099 124.108 92 125.542 92 127C92 144.397 106.103 158.5 123.5 158.5Z" fill="white"/>
</svg>
