<svg width="235" height="235" viewBox="0 0 235 235" fill="none" xmlns="http://www.w3.org/2000/svg">
<path fill-rule="evenodd" clip-rule="evenodd" d="M117.5 194C147.6 194 172 169.6 172 139.5C172 94.5 117.5 40.5 117.5 40.5C117.5 40.5 63 91 63 139.5C63 169.6 87.4005 194 117.5 194ZM123.5 159C132.685 159 140.951 155.069 146.709 148.798C144.613 164.162 131.439 176 115.5 176C98.103 176 84 161.897 84 144.5C84 136.288 87.1426 128.81 92.2907 123.202C92.099 124.608 92 126.042 92 127.5C92 144.897 106.103 159 123.5 159Z" fill="black"/>
</svg>
